<svg width="16" height="16" viewBox="0 0 16 16" fill="none" xmlns="http://www.w3.org/2000/svg">
<path fill-rule="evenodd" clip-rule="evenodd" d="M3.33334 3.33325C2.22878 3.33325 1.33334 4.22869 1.33334 5.33325V10.6666C1.33334 11.7712 2.22878 12.6666 3.33334 12.6666H8.66668C9.77128 12.6666 10.6667 11.7712 10.6667 10.6666V10.412L12.7371 11.4471C13.6236 11.8904 14.6667 11.2458 14.6667 10.2546V5.74529C14.6667 4.75412 13.6236 4.10945 12.7371 4.55272L10.6667 5.58791V5.33325C10.6667 4.22869 9.77128 3.33325 8.66668 3.33325H3.33334ZM6.00001 5.33325C6.3682 5.33325 6.66668 5.63173 6.66668 5.99992V7.33325H8.00001C8.36821 7.33325 8.66668 7.63172 8.66668 7.99992C8.66668 8.36812 8.36821 8.66658 8.00001 8.66658H6.66668V9.99992C6.66668 10.3681 6.3682 10.6666 6.00001 10.6666C5.63182 10.6666 5.33334 10.3681 5.33334 9.99992V8.66658H4.00001C3.63182 8.66658 3.33334 8.36812 3.33334 7.99992C3.33334 7.63172 3.63182 7.33325 4.00001 7.33325H5.33334V5.99992C5.33334 5.63173 5.63182 5.33325 6.00001 5.33325Z" fill="#FFC107"/>
</svg>
