<svg width="20" height="20" viewBox="0 0 20 20" fill="none" xmlns="http://www.w3.org/2000/svg">
<g opacity="0.34" clip-path="url(#clip0_517_1057)">
<path d="M15.9766 20.0001C15.6925 19.8886 15.4639 19.7208 15.3891 19.4038C15.2725 18.9101 15.6263 18.4468 16.1375 18.4401C16.7492 18.4319 17.3613 18.439 17.973 18.437C18.2928 18.4362 18.4368 18.2915 18.4368 17.9694C18.4376 15.6391 18.4372 13.3091 18.4372 10.9787V10.821C18.3484 10.821 18.2728 10.821 18.1973 10.821C15.9907 10.821 13.7837 10.8222 11.5771 10.8202C11.0252 10.8198 10.6542 10.3605 10.781 9.84557C10.8667 9.49774 11.1751 9.2618 11.561 9.25985C12.2248 9.25671 12.889 9.25867 13.5528 9.25867C15.1022 9.25867 16.6513 9.25867 18.2008 9.25867H18.4376V9.03878C18.4376 6.7217 18.4376 4.40422 18.4376 2.08714C18.4376 1.68648 18.3143 1.56402 17.9116 1.56402C15.0866 1.56402 12.2612 1.56402 9.43622 1.56402H9.22056C9.22056 1.64775 9.22056 1.717 9.22056 1.78626C9.22056 2.45689 9.22174 3.12713 9.22017 3.79776C9.219 4.28606 8.88515 4.64211 8.43623 4.63859C7.9881 4.63507 7.65973 4.27823 7.65856 3.78915C7.65699 3.12517 7.65817 2.46119 7.65817 1.79721C7.65817 1.72717 7.65817 1.65675 7.65817 1.5738C7.57989 1.57028 7.51688 1.56441 7.45387 1.56441C5.65703 1.56402 3.86059 1.56402 2.06376 1.56441C1.70721 1.56441 1.56318 1.69783 1.56318 2.03393C1.5624 4.37722 1.56279 6.72052 1.56279 9.06382V9.2082H7.65778C7.65778 9.1319 7.65778 9.06226 7.65778 8.99261C7.65778 8.32198 7.65621 7.65174 7.65856 6.98111C7.66012 6.49867 8.00415 6.13793 8.44954 6.14536C8.89493 6.15279 9.21978 6.50063 9.22017 6.97993C9.22135 8.99144 9.22135 11.0025 9.22017 13.0141C9.22017 13.5035 8.8875 13.858 8.4378 13.8564C7.99045 13.8549 7.65973 13.4973 7.65856 13.0086C7.65699 12.3446 7.65817 11.6806 7.65817 11.0166C7.65817 10.9462 7.65817 10.8758 7.65817 10.794H1.5624V11.0092C1.5624 13.3071 1.5624 15.6046 1.5624 17.9025C1.5624 18.3169 1.68294 18.4378 2.09585 18.4382C3.87311 18.4382 5.64999 18.4382 7.42725 18.4382H7.65778C7.65778 18.338 7.65778 18.2555 7.65778 18.1729C7.65778 17.5156 7.65621 16.8579 7.65856 16.2005C7.66012 15.7177 8.00297 15.357 8.44837 15.3636C8.89376 15.3703 9.21861 15.7185 9.22017 16.197C9.22213 16.8676 9.22056 17.5379 9.22056 18.2085C9.22056 18.2785 9.22056 18.3482 9.22056 18.4382C9.30862 18.4382 9.37868 18.4382 9.44835 18.4382C10.6526 18.4382 11.8569 18.4362 13.0612 18.4394C13.4592 18.4405 13.7649 18.6976 13.8373 19.0756C13.9089 19.4504 13.7113 19.8014 13.3453 19.952C13.3105 19.9665 13.2768 19.9841 13.2428 20.0005H1.67981C1.67003 19.9923 1.66142 19.9794 1.65046 19.9766C0.531888 19.6938 0 19.0137 0 17.8638C0 12.6056 0 7.34733 0 2.0891C0 0.823738 0.822684 0.00168673 2.08802 0.00168673C5.58306 0.00168673 9.07771 0.00168673 12.5727 0.00168673C14.3821 0.00168673 16.1915 -0.0026172 18.0004 0.00364307C18.8497 0.00638194 19.463 0.404692 19.8301 1.16884C19.9076 1.32965 19.9444 1.51002 19.9996 1.6814V18.3208C19.9859 18.3627 19.9691 18.4034 19.9589 18.446C19.8016 19.1037 19.4188 19.576 18.7969 19.8456C18.6443 19.9117 18.4795 19.9496 18.3202 20.0005H15.9766V20.0001Z" fill="#85879E"/>
</g>
<defs>
<clipPath id="clip0_517_1057">
<rect width="20" height="20" fill="white"/>
</clipPath>
</defs>
</svg>
