<svg width="120" height="16" viewBox="0 0 120 16" fill="none" xmlns="http://www.w3.org/2000/svg">
<path d="M0.285646 16H3.99905V6.01653H0.285646V16ZM4.26272 2.4022C4.26272 0.881542 3.55959 0.61708 2.13136 0.61708C0.70313 0.61708 0 0.881542 0 2.4022C0 3.92286 0.70313 4.18733 2.13136 4.18733C3.55959 4.18733 4.26272 3.92286 4.26272 2.4022Z" fill="white"/>
<path d="M26.3538 0H13.236C10.7311 0 8.86345 0.418733 7.74284 1.45455C6.97379 2.18182 6.46842 3.19559 6.46842 4.53994C6.46842 5.92837 7.06168 7.0303 7.8527 7.7135C9.21502 8.90358 11.3244 9.21212 13.6535 9.38843L21.7835 10.0055C23.3875 10.1377 23.9148 10.4904 23.9148 11.3939C23.9148 12.4077 23.1677 12.8926 21.3879 12.8926H7.41325V16H20.8386C23.761 16 25.4969 15.5372 26.6175 14.4132C27.3865 13.6639 27.804 12.584 27.804 11.2176C27.804 9.8292 27.3646 8.8595 26.6834 8.17631C25.6287 7.11846 24.0027 6.7438 21.1902 6.52342L12.423 5.84022C11.0388 5.73003 10.2917 5.39945 10.2917 4.47383C10.2917 4.09917 10.4015 3.79063 10.6213 3.59229C11.0388 3.19559 11.8518 3.10744 12.9504 3.10744H26.3538V0Z" fill="white"/>
<path d="M30.1906 11.1295C30.1906 12.9587 30.5202 13.9284 31.2673 14.6997C32.1242 15.5813 33.5525 16 36.2332 16H41.4407V13.2672H36.8923C35.6179 13.2672 34.8489 13.1791 34.4094 12.7383C34.0578 12.3857 33.904 11.8127 33.904 10.7989V8.61708H40.2761V6.01653H33.904V1.03581H30.1906V11.1295Z" fill="white"/>
<path d="M43.4097 16H47.1231V11.2617C47.1231 10.2039 47.2769 9.63085 47.6285 9.27824C48.0679 8.83747 48.8589 8.74931 50.1334 8.74931H54.8136V6.01653H49.606C47.2329 6.01653 45.6509 6.32507 44.5742 7.36088C43.7173 8.19835 43.4097 9.32231 43.4097 11.0634V16Z" fill="white"/>
<path d="M72.5396 12.0992C72.5835 11.8788 72.6275 11.438 72.6275 11.1295C72.6275 9.47658 72.0782 8.22039 71.1993 7.427C69.9908 6.30303 68.189 6.01653 65.772 6.01653H62.7837C60.4765 6.01653 58.5869 6.41322 57.4663 7.44904C56.6313 8.22039 56.038 9.32231 56.038 10.9752C56.038 12.562 56.4775 13.7741 57.3125 14.5895C58.3012 15.5592 59.8174 16 62.1025 16H71.7925V13.3774H62.7397C61.3994 13.3774 60.6963 13.2672 60.3008 12.9587C60.0371 12.7603 59.9052 12.4077 59.8833 12.0992H72.5396ZM59.9052 9.91735C59.9272 9.45455 60.125 9.12397 60.4765 8.90358C60.894 8.63912 61.5971 8.59504 62.6299 8.59504H66.2114C67.2442 8.59504 67.9473 8.63912 68.3648 8.90358C68.7163 9.12397 68.9141 9.45455 68.9361 9.91735H59.9052Z" fill="white"/>
<path d="M81.5874 13.2893C80.291 13.2893 79.4341 13.2011 78.9287 12.7383C78.5332 12.3636 78.3354 11.8127 78.3354 11.0193C78.3354 10.2259 78.5332 9.67493 78.9287 9.30027C79.4341 8.83747 80.291 8.72727 81.5874 8.72727H87.3882V13.2893H81.5874ZM74.5561 10.9752C74.5561 12.4738 75.0395 13.686 75.8965 14.5234C76.9731 15.5813 78.6211 16 80.9722 16H91.1016V6.01653H80.9942C78.6431 6.01653 76.9951 6.41322 75.9184 7.47107C75.0615 8.30854 74.5561 9.52066 74.5561 10.9752Z" fill="white"/>
<path d="M94.2699 6.01653V16H97.9832V8.74931H105.212V16H108.926V8.74931H113.298C114.573 8.74931 115.342 8.83747 115.781 9.27824C116.133 9.63085 116.287 10.2039 116.287 11.2176V16H120V10.8871C120 9.07989 119.736 8.08815 118.989 7.3168C118.132 6.43526 116.704 6.01653 114.023 6.01653H94.2699Z" fill="white"/>
</svg>
