<svg width="20" height="20" viewBox="0 0 20 20" fill="none" xmlns="http://www.w3.org/2000/svg">
<path d="M10 6.66659C10.9167 6.66659 11.6667 5.91659 11.6667 4.99992C11.6667 4.08325 10.9167 3.33325 10 3.33325C9.08334 3.33325 8.33334 4.08325 8.33334 4.99992C8.33334 5.91659 9.08334 6.66659 10 6.66659ZM10 8.33325C9.08334 8.33325 8.33334 9.08325 8.33334 9.99992C8.33334 10.9166 9.08334 11.6666 10 11.6666C10.9167 11.6666 11.6667 10.9166 11.6667 9.99992C11.6667 9.08325 10.9167 8.33325 10 8.33325ZM10 13.3333C9.08334 13.3333 8.33334 14.0833 8.33334 14.9999C8.33334 15.9166 9.08334 16.6666 10 16.6666C10.9167 16.6666 11.6667 15.9166 11.6667 14.9999C11.6667 14.0833 10.9167 13.3333 10 13.3333Z" fill="#85879E"/>
</svg>
