<svg width="16" height="17" viewBox="0 0 16 17" fill="none" xmlns="http://www.w3.org/2000/svg">
<path d="M13 8.50004C13 8.34671 12.9933 8.20004 12.98 8.04671L14.22 7.10671C14.4867 6.90671 14.56 6.53337 14.3933 6.24004L13.1467 4.08671C12.98 3.79337 12.62 3.67337 12.3133 3.80671L10.88 4.41337C10.6333 4.24004 10.3733 4.08671 10.1 3.96004L9.90666 2.42004C9.86666 2.08671 9.57999 1.83337 9.24666 1.83337H6.75999C6.41999 1.83337 6.13332 2.08671 6.09332 2.42004L5.89999 3.96004C5.62666 4.08671 5.36666 4.24004 5.11999 4.41337L3.68666 3.80671C3.37999 3.67337 3.01999 3.79337 2.85332 4.08671L1.60666 6.24671C1.43999 6.54004 1.51332 6.90671 1.77999 7.11337L3.01999 8.05337C3.00666 8.20004 2.99999 8.34671 2.99999 8.50004C2.99999 8.65337 3.00666 8.80004 3.01999 8.95337L1.77999 9.89337C1.51332 10.0934 1.43999 10.4667 1.60666 10.76L2.85332 12.9134C3.01999 13.2067 3.37999 13.3267 3.68666 13.1934L5.11999 12.5867C5.36666 12.76 5.62666 12.9134 5.89999 13.04L6.09332 14.58C6.13332 14.9134 6.41999 15.1667 6.75332 15.1667H9.23999C9.57332 15.1667 9.85999 14.9134 9.89999 14.58L10.0933 13.04C10.3667 12.9134 10.6267 12.76 10.8733 12.5867L12.3067 13.1934C12.6133 13.3267 12.9733 13.2067 13.14 12.9134L14.3867 10.76C14.5533 10.4667 14.48 10.1 14.2133 9.89337L12.9733 8.95337C12.9933 8.80004 13 8.65337 13 8.50004ZM8.02666 10.8334C6.73999 10.8334 5.69332 9.78671 5.69332 8.50004C5.69332 7.21337 6.73999 6.16671 8.02666 6.16671C9.31332 6.16671 10.36 7.21337 10.36 8.50004C10.36 9.78671 9.31332 10.8334 8.02666 10.8334Z" fill="#6C7F9E"/>
</svg>
